<svg width="21" height="21" viewBox="0 0 21 21" fill="none" xmlns="http://www.w3.org/2000/svg">
<path fill-rule="evenodd" clip-rule="evenodd" d="M6.96848 1.84636C5.50655 1.68308 3.99323 1.68308 2.5313 1.84636C2.17607 1.88604 1.89592 2.16713 1.85597 2.50853C1.68139 4.00021 1.68139 5.50714 1.85597 6.99882C1.89592 7.34022 2.17607 7.62131 2.5313 7.66099C3.99323 7.82427 5.50655 7.82427 6.96848 7.66099C7.32371 7.62131 7.60385 7.34022 7.64381 6.99882C7.81839 5.50714 7.81839 4.00021 7.64381 2.50853C7.60385 2.16713 7.32371 1.88604 6.96848 1.84636ZM2.33969 0.13313C3.92896 -0.0443768 5.57081 -0.0443768 7.16008 0.13313C8.29957 0.260401 9.2224 1.15681 9.35716 2.30827C9.54731 3.933 9.54731 5.57435 9.35716 7.19908C9.2224 8.35054 8.29957 9.24695 7.16008 9.37422C5.57081 9.55173 3.92896 9.55173 2.33969 9.37422C1.20021 9.24695 0.277377 8.35054 0.142614 7.19908C-0.0475381 5.57435 -0.0475381 3.933 0.142614 2.30827C0.277377 1.15681 1.2002 0.260401 2.33969 0.13313Z" fill="#4C9FC1"/>
<path fill-rule="evenodd" clip-rule="evenodd" d="M6.96848 13.339C5.50655 13.1757 3.99323 13.1757 2.5313 13.339C2.17607 13.3787 1.89592 13.6598 1.85597 14.0012C1.68139 15.4929 1.68139 16.9998 1.85597 18.4915C1.89592 18.8329 2.17607 19.114 2.5313 19.1536C3.99323 19.3169 5.50655 19.3169 6.96848 19.1536C7.32371 19.114 7.60385 18.8329 7.64381 18.4915C7.81839 16.9998 7.81839 15.4929 7.64381 14.0012C7.60385 13.6598 7.32371 13.3787 6.96848 13.339ZM2.33969 11.6258C3.92896 11.4483 5.57081 11.4483 7.16008 11.6258C8.29957 11.753 9.2224 12.6495 9.35716 13.8009C9.54731 15.4257 9.54731 17.067 9.35716 18.6917C9.2224 19.8432 8.29957 20.7396 7.16008 20.8669C5.57081 21.0444 3.92896 21.0444 2.33969 20.8669C1.20021 20.7396 0.277377 19.8432 0.142614 18.6917C-0.0475381 17.067 -0.0475381 15.4257 0.142614 13.8009C0.277377 12.6495 1.2002 11.753 2.33969 11.6258Z" fill="#4C9FC1"/>
<path fill-rule="evenodd" clip-rule="evenodd" d="M18.4687 1.84636C17.0068 1.68308 15.4935 1.68308 14.0315 1.84636C13.6763 1.88604 13.3961 2.16713 13.3562 2.50853C13.1816 4.00021 13.1816 5.50714 13.3562 6.99882C13.3961 7.34022 13.6763 7.62131 14.0315 7.66099C15.4935 7.82427 17.0068 7.82427 18.4687 7.66099C18.8239 7.62131 19.1041 7.34022 19.144 6.99882C19.3186 5.50714 19.3186 4.00021 19.144 2.50853C19.1041 2.16713 18.8239 1.88604 18.4687 1.84636ZM13.8399 0.13313C15.4292 -0.0443768 17.071 -0.0443768 18.6603 0.13313C19.7998 0.260401 20.7226 1.15681 20.8574 2.30827C21.0475 3.933 21.0475 5.57435 20.8574 7.19908C20.7226 8.35054 19.7998 9.24695 18.6603 9.37422C17.071 9.55173 15.4292 9.55173 13.8399 9.37422C12.7004 9.24695 11.7776 8.35054 11.6428 7.19908C11.4527 5.57435 11.4527 3.933 11.6428 2.30827C11.7776 1.15681 12.7004 0.260401 13.8399 0.13313Z" fill="#4C9FC1"/>
<path fill-rule="evenodd" clip-rule="evenodd" d="M18.4687 13.339C17.0068 13.1757 15.4935 13.1757 14.0315 13.339C13.6763 13.3787 13.3961 13.6598 13.3562 14.0012C13.1816 15.4929 13.1816 16.9998 13.3562 18.4915C13.3961 18.8329 13.6763 19.114 14.0315 19.1536C15.4935 19.3169 17.0068 19.3169 18.4687 19.1536C18.8239 19.114 19.1041 18.8329 19.144 18.4915C19.3186 16.9998 19.3186 15.4929 19.144 14.0012C19.1041 13.6598 18.8239 13.3787 18.4687 13.339ZM13.8399 11.6258C15.4292 11.4483 17.071 11.4483 18.6603 11.6258C19.7998 11.753 20.7226 12.6495 20.8574 13.8009C21.0475 15.4257 21.0475 17.067 20.8574 18.6917C20.7226 19.8432 19.7998 20.7396 18.6603 20.8669C17.071 21.0444 15.4292 21.0444 13.8399 20.8669C12.7004 20.7396 11.7776 19.8432 11.6428 18.6917C11.4527 17.067 11.4527 15.4257 11.6428 13.8009C11.7776 12.6495 12.7004 11.753 13.8399 11.6258Z" fill="#4C9FC1"/>
</svg>
