<svg width="16" height="16" viewBox="0 0 16 16" fill="none" xmlns="http://www.w3.org/2000/svg">
<path d="M3.33333 12.6667H4.26667L10.0167 6.91671L9.08333 5.98337L3.33333 11.7334V12.6667ZM12.8667 5.95004L10.0333 3.15004L10.9667 2.21671C11.2222 1.96115 11.5362 1.83337 11.9087 1.83337C12.2811 1.83337 12.5949 1.96115 12.85 2.21671L13.7833 3.15004C14.0389 3.4056 14.1722 3.71404 14.1833 4.07537C14.1944 4.43671 14.0722 4.74493 13.8167 5.00004L12.8667 5.95004ZM11.9 6.93337L4.83333 14H2V11.1667L9.06667 4.10004L11.9 6.93337ZM9.55 6.45004L9.08333 5.98337L10.0167 6.91671L9.55 6.45004Z" fill="#94C180"/>
</svg>
