<svg width="20" height="21" viewBox="0 0 20 21" fill="none" xmlns="http://www.w3.org/2000/svg">
<path fill-rule="evenodd" clip-rule="evenodd" d="M9.626 3.50008C13.3789 3.55417 16.4579 6.98248 18 9.93226C18 9.93226 17.4573 11.0606 16.9484 11.7829C16.7021 12.1323 16.443 12.4727 16.1707 12.802C15.9766 13.0364 15.7761 13.2646 15.5681 13.4864C13.7094 15.4698 11.04 16.9493 8.22122 16.3749C5.08975 15.7366 2.53539 13.0104 1 10.0783C1 10.0783 1.54516 8.94888 2.05695 8.22766C2.28623 7.9042 2.52687 7.58939 2.77886 7.28395C2.97194 7.04991 3.17212 6.82165 3.37903 6.59987C5.02125 4.84155 7.12842 3.48782 9.626 3.50008ZM9.61287 4.94252C7.52238 4.93458 5.78398 6.12063 4.40866 7.59299C4.22162 7.79313 4.04132 7.9994 3.8667 8.21071C3.63706 8.4891 3.41772 8.77651 3.20867 9.07113C2.99962 9.36538 2.78525 9.73681 2.61525 10.0523C3.96891 12.3635 6.00083 14.451 8.50054 14.9606C10.8299 15.4355 13.0038 14.1308 14.5399 12.4919C14.7276 12.2917 14.909 12.0851 15.0843 11.8734C15.3328 11.573 15.5691 11.2625 15.7938 10.9434C16.0018 10.6481 16.2158 10.2759 16.3855 9.96003C14.9807 7.57099 12.5772 4.9894 9.61287 4.94252Z" fill="black" fill-opacity="0.6"/>
<path fill-rule="evenodd" clip-rule="evenodd" d="M9.49994 7.11426C11.0705 7.11426 12.3457 8.40992 12.3457 10.0053C12.3457 11.601 11.0705 12.8963 9.49994 12.8963C7.92977 12.8963 6.65454 11.601 6.65454 10.0053C6.65454 8.40992 7.92977 7.11426 9.49994 7.11426Z" fill="black" fill-opacity="0.6"/>
</svg>
