<svg width="20" height="21" viewBox="0 0 20 21" fill="none" xmlns="http://www.w3.org/2000/svg">
<path fill-rule="evenodd" clip-rule="evenodd" d="M2.97712 2.5L1.87793 3.58126L16.0226 17.5L17.1218 16.4184L2.97712 2.5Z" fill="black" fill-opacity="0.6"/>
<path d="M4.20032 5.8662L5.23492 6.88424C4.10236 7.83314 3.20051 9.01428 2.61773 10.0477L2.61595 10.0512C4.23901 12.7215 6.81431 15.2451 10.0647 14.8624C10.942 14.759 11.7605 14.4639 12.5083 14.0416L13.5557 15.0719C12.098 15.9925 10.4271 16.4801 8.6166 16.2391C5.35204 15.8046 2.68268 13.1699 1 10.0756C1.79005 8.51137 2.87079 7.01486 4.20032 5.8662ZM6.55345 4.35747C7.4663 3.95723 8.45405 3.72184 9.50887 3.70508C9.56744 3.70473 10.2627 3.73721 10.5779 3.7882C10.7756 3.82033 10.9726 3.86049 11.1667 3.91044C14.2634 4.70427 16.5576 7.28029 18 9.93419C17.3949 11.1366 16.6023 12.3101 15.6572 13.3156L14.6538 12.3282C15.3519 11.5879 15.934 10.7636 16.3823 9.96422C16.3823 9.96422 15.9315 9.25106 15.5897 8.80334C15.37 8.51556 15.139 8.23616 14.8962 7.9669C14.7046 7.75456 13.9603 7.03337 13.7832 6.8832C12.5949 5.87772 11.1997 5.08878 9.52626 5.10205C8.87818 5.11218 8.25494 5.23791 7.66328 5.44955L6.55345 4.35747Z" fill="black" fill-opacity="0.6"/>
<path fill-rule="evenodd" clip-rule="evenodd" d="M7.0168 8.63802L7.81548 9.4236L10.8897 12.4486C10.4787 12.6756 10.0045 12.8048 9.50019 12.8048C7.92966 12.8048 6.65479 11.5504 6.65479 10.005C6.65479 9.50869 6.78646 9.04245 7.0168 8.63802ZM9.44766 7.20578C9.46505 7.20543 9.48279 7.20508 9.50019 7.20508C11.0707 7.20508 12.3456 8.45991 12.3456 10.005C12.3456 10.0224 12.3456 10.0395 12.3452 10.0567L9.44766 7.20578Z" fill="black" fill-opacity="0.6"/>
</svg>
