<svg width="24" height="24" viewBox="0 0 24 24" fill="none" xmlns="http://www.w3.org/2000/svg">
<path d="M16.6875 3C14.7516 3 13.0566 3.8325 12 5.23969C10.9434 3.8325 9.24844 3 7.3125 3C5.77146 3.00174 4.29404 3.61468 3.20436 4.70436C2.11468 5.79404 1.50174 7.27146 1.5 8.8125C1.5 15.375 11.2303 20.6869 11.6447 20.9062C11.7539 20.965 11.876 20.9958 12 20.9958C12.124 20.9958 12.2461 20.965 12.3553 20.9062C12.7697 20.6869 22.5 15.375 22.5 8.8125C22.4983 7.27146 21.8853 5.79404 20.7956 4.70436C19.706 3.61468 18.2285 3.00174 16.6875 3ZM12 7.49627C10.2881 6.49877 11.3062 5.23969 9 4.5C9.00149 3.35671 7.44157 6.05843 8.25 5.25C9.05843 4.44157 7.85671 6.00149 9 6C10.8234 6 9.86062 5.94 10.5 7.5C10.5565 7.63756 11.4589 7.28646 11.5824 7.36926C11.7059 7.45207 11.8513 7.49627 12 7.49627C12.1487 7.49627 11.8765 8.3328 12 8.25C11.7238 9.55798 12.1235 8.1672 12 8.25C10.9509 13.2188 13.1766 10.5 15 10.5C16.1433 10.5015 20.1916 11.1916 21 12C21.8084 12.8084 20.9985 7.66921 21 8.8125C21 13.8384 13.71 6.49784 12 7.49627Z" fill="#FFCE91"/>
</svg>
