<svg width="21" height="21" viewBox="0 0 21 21" fill="none" xmlns="http://www.w3.org/2000/svg">
<path fill-rule="evenodd" clip-rule="evenodd" d="M12.4588 2.43465C11.3641 1.47825 9.63585 1.47825 8.54121 2.43465L2.72399 7.51722C2.58146 7.64175 2.48559 7.80397 2.44996 7.98088C1.7532 11.4406 1.70177 14.9825 2.29782 18.4578L2.43931 19.2827H6.18187V12.1713C6.18187 11.6971 6.60408 11.3127 7.12491 11.3127H13.8751C14.3959 11.3127 14.8181 11.6971 14.8181 12.1713V19.2827H18.5607L18.7022 18.4578C19.2982 14.9825 19.2468 11.4406 18.55 7.98088C18.5144 7.80397 18.4185 7.64175 18.276 7.51722L12.4588 2.43465ZM7.23536 1.1955C9.05976 -0.3985 11.9402 -0.3985 13.7646 1.1955L19.5819 6.27808C20.0101 6.65223 20.2981 7.1396 20.4052 7.67112C21.1402 11.3206 21.1944 15.0568 20.5657 18.7227L20.3384 20.0479C20.2444 20.596 19.726 21 19.1168 21H13.8751C13.3543 21 12.9321 20.6156 12.9321 20.1413V13.03H8.06795V20.1413C8.06795 20.6156 7.64573 21 7.12491 21H1.8832C1.27402 21 0.755615 20.596 0.661619 20.0479L0.434331 18.7227C-0.194424 15.0568 -0.140171 11.3206 0.59481 7.67112C0.701855 7.1396 0.989902 6.65223 1.41813 6.27808L7.23536 1.1955Z" fill="#45405D"/>
</svg>
