<svg width="14" height="14" viewBox="0 0 14 14" fill="none" xmlns="http://www.w3.org/2000/svg">
<path d="M7 8.16666C7.9665 8.16666 8.75 7.38316 8.75 6.41666C8.75 5.45016 7.9665 4.66666 7 4.66666C6.0335 4.66666 5.25 5.45016 5.25 6.41666C5.25 7.38316 6.0335 8.16666 7 8.16666Z" stroke="#F6A1BB" stroke-width="1.5" stroke-linecap="round" stroke-linejoin="round"/>
<path d="M10.3 9.71658L7.82488 12.1917C7.60612 12.4102 7.30955 12.533 7.00033 12.533C6.69112 12.533 6.39455 12.4102 6.17579 12.1917L3.70013 9.71658C3.04751 9.06393 2.60307 8.23241 2.42303 7.32717C2.24298 6.42193 2.33541 5.48363 2.68863 4.63092C3.04184 3.77822 3.63998 3.0494 4.40741 2.53663C5.17483 2.02386 6.07707 1.75017 7.00004 1.75017C7.92301 1.75017 8.82525 2.02386 9.59268 2.53663C10.3601 3.0494 10.9582 3.77822 11.3115 4.63092C11.6647 5.48363 11.7571 6.42193 11.5771 7.32717C11.397 8.23241 10.9526 9.06393 10.3 9.71658V9.71658Z" stroke="#F6A1BB" stroke-width="1.5" stroke-linecap="round" stroke-linejoin="round"/>
</svg>
