<svg width="78" height="19" viewBox="0 0 78 19" fill="none" xmlns="http://www.w3.org/2000/svg">
<path d="M29.4 8.1001C29.2 9.6001 28 9.6001 26.9 9.6001H26.3L26.8 6.7001C26.8 6.5001 27 6.4001 27.2 6.4001H27.5C28.3 6.4001 29 6.4001 29.4 6.8001C29.4 7.2001 29.4 7.6001 29.4 8.1001ZM28.9 4.1001H24.6C24.3 4.1001 24.1 4.3001 24 4.6001L22.3 15.6001C22.3 15.8001 22.4 16.0001 22.7 16.0001H24.7C25 16.0001 25.2 15.8001 25.3 15.5001L25.8 12.5001C25.8 12.2001 26.1 12.0001 26.4 12.0001H27.8C30.6 12.0001 32.2 10.6001 32.7 7.9001C32.9 6.7001 32.7 5.8001 32.2 5.1001C31.4 4.5001 30.3 4.1001 28.9 4.1001Z" fill="#263577"/>
<path d="M38.8 12.0999C38.6 13.2999 37.7 14.0999 36.5 14.0999C35.9 14.0999 35.4 13.8999 35.1 13.4999C34.8 13.0999 34.7 12.5999 34.8 12.0999C35 10.8999 35.9 10.0999 37.1 10.0999C37.7 10.0999 38.2 10.2999 38.5 10.6999C38.7 10.9999 38.9 11.4999 38.8 12.0999ZM41.6 8.0999H39.6C39.4 8.0999 39.3 8.1999 39.2 8.3999L39.1 8.9999L39 8.7999C38.6 8.1999 37.6 7.8999 36.6 7.8999C34.3 7.8999 32.4 9.5999 32 11.9999C31.8 13.1999 32.1 14.2999 32.8 15.0999C33.4 15.7999 34.3 16.0999 35.4 16.0999C37.2 16.0999 38.2 14.8999 38.2 14.8999L38.1 15.4999C38.1 15.6999 38.2 15.8999 38.5 15.8999H40.3C40.6 15.8999 40.8 15.6999 40.9 15.3999L42 8.3999C42 8.2999 41.9 8.0999 41.6 8.0999Z" fill="#263577"/>
<path d="M52.5 8.1001H50.4C50.2 8.1001 50 8.2001 49.9 8.4001L47.1 12.6001L45.9 8.6001C45.8 8.3001 45.6 8.2001 45.3 8.2001H43.3C43.1 8.2001 42.9 8.4001 43 8.7001L45.3 15.3001L43.2 18.3001C43 18.5001 43.2 18.9001 43.5 18.9001H45.6C45.8 18.9001 46 18.8001 46.1 18.6001L52.9 8.7001C53 8.4001 52.8 8.1001 52.5 8.1001Z" fill="#263577"/>
<path d="M59.8 8.1001C59.6 9.6001 58.4 9.6001 57.3 9.6001H56.7L57.2 6.7001C57.2 6.5001 57.4 6.4001 57.6 6.4001H57.9C58.7 6.4001 59.4 6.4001 59.8 6.8001C59.9 7.2001 59.9 7.6001 59.8 8.1001ZM59.3 4.1001H55C54.7 4.1001 54.5 4.3001 54.4 4.6001L52.7 15.6001C52.7 15.8001 52.8 16.0001 53.1 16.0001H55.3C55.5 16.0001 55.7 15.9001 55.7 15.6001L56.2 12.5001C56.2 12.2001 56.5 12.0001 56.8 12.0001H58.2C61 12.0001 62.6 10.6001 63.1 7.9001C63.3 6.7001 63.1 5.8001 62.6 5.1001C61.9 4.5001 60.8 4.1001 59.3 4.1001Z" fill="#2199D6"/>
<path d="M69.3 12.0999C69.1 13.2999 68.2 14.0999 67 14.0999C66.4 14.0999 65.9 13.8999 65.6 13.4999C65.3 13.0999 65.2 12.5999 65.3 12.0999C65.5 10.8999 66.4 10.0999 67.6 10.0999C68.2 10.0999 68.7 10.2999 69 10.6999C69.2 10.9999 69.4 11.4999 69.3 12.0999ZM72.1 8.0999H70.1C69.9 8.0999 69.8 8.1999 69.7 8.3999L69.6 8.9999L69.5 8.7999C69.1 8.1999 68.1 7.8999 67.1 7.8999C64.8 7.8999 62.9 9.5999 62.5 11.9999C62.3 13.1999 62.6 14.2999 63.3 15.0999C63.9 15.7999 64.8 16.0999 65.9 16.0999C67.7 16.0999 68.7 14.8999 68.7 14.8999L68.6 15.4999C68.6 15.6999 68.7 15.8999 69 15.8999H70.8C71.1 15.8999 71.3 15.6999 71.4 15.3999L72.5 8.3999C72.5 8.2999 72.3 8.0999 72.1 8.0999Z" fill="#2199D6"/>
<path d="M74.5 4.4001L72.7 15.6001C72.7 15.8001 72.8 16.0001 73.1 16.0001H74.9C75.2 16.0001 75.4 15.8001 75.5 15.5001L77.2 4.5001C77.2 4.3001 77.1 4.1001 76.8 4.1001H74.8C74.7 4.1001 74.6 4.3001 74.5 4.4001Z" fill="#2199D6"/>
<path d="M4.49998 18.1001L4.79997 16.0001H4.09998H0.599976L2.99998 0.700096C2.99998 0.700096 2.99998 0.600098 3.09998 0.600098H3.19998H9.09998C11 0.600098 12.4 1.0001 13.1 1.8001C13.4 2.2001 13.6 2.6001 13.7 3.0001C13.8 3.5001 13.8 4.0001 13.7 4.7001V5.1001L14 5.3001C14.3 5.4001 14.5 5.6001 14.7 5.8001C15 6.1001 15.2 6.5001 15.2 7.0001C15.3 7.5001 15.3 8.1001 15.1 8.8001C14.9 9.6001 14.7 10.2001 14.4 10.8001C14.1 11.3001 13.7 11.7001 13.3 12.1001C12.9 12.4001 12.3 12.6001 11.8 12.8001C11.2 12.9001 10.6 13.0001 9.89998 13.0001H9.39998C9.09998 13.0001 8.79998 13.1001 8.49998 13.3001C8.29998 13.5001 8.09998 13.8001 7.99998 14.1001V14.3001L7.39998 18.0001V18.1001V18.2001C7.39998 18.2001 7.39997 18.2001 7.29997 18.2001H4.49998V18.1001Z" fill="#263577"/>
<path d="M14.4 4.7002C14.4 4.8002 14.4 4.9002 14.3 5.0002C13.5 9.0002 10.9 10.3002 7.5 10.3002H5.79999C5.39999 10.3002 5 10.6002 5 11.0002L4.09999 16.6002L3.89999 18.2002C3.89999 18.5002 4.09999 18.7002 4.29999 18.7002H7.39999C7.79999 18.7002 8.09999 18.4002 8.09999 18.1002V17.9002L8.7 14.3002V14.1002C8.8 13.7002 9.09999 13.5002 9.39999 13.5002H9.89999C12.9 13.5002 15.2 12.3002 15.8 8.8002C16.1 7.3002 15.9 6.1002 15.2 5.3002C15 5.1002 14.7 4.9002 14.4 4.7002Z" fill="#2199D6"/>
<path d="M13.6 4.4001C13.5 4.4001 13.4 4.3001 13.2 4.3001C13.1 4.3001 12.9 4.2001 12.8 4.2001C12.3 4.1001 11.8 4.1001 11.3 4.1001H6.7C6.6 4.1001 6.49999 4.1001 6.39999 4.2001C6.19999 4.3001 6 4.5001 6 4.7001L5 10.9001V11.1001C5.1 10.7001 5.39999 10.4001 5.79999 10.4001H7.5C10.9 10.4001 13.5 9.0001 14.3 5.1001C14.3 5.0001 14.3 4.9001 14.4 4.8001C14.2 4.7001 14 4.6001 13.8 4.5001C13.7 4.4001 13.6 4.4001 13.6 4.4001Z" fill="#252C5E"/>
<path d="M6 4.7C6 4.5 6.19999 4.3 6.39999 4.2C6.49999 4.2 6.6 4.1 6.7 4.1H11.3C11.8 4.1 12.4 4.1 12.8 4.2C12.9 4.2 13.1 4.2 13.2 4.3C13.3 4.3 13.4 4.4 13.6 4.4C13.7 4.4 13.7 4.4 13.8 4.5C14 4.6 14.2 4.7 14.4 4.8C14.6 3.3 14.4 2.3 13.6 1.4C12.7 0.399998 11.1 0 9.09999 0H3.2C2.8 0 2.39999 0.299997 2.39999 0.699997L0 16.1C0 16.4 0.2 16.7 0.5 16.7H4.09999L5 10.9L6 4.7Z" fill="#263577"/>
</svg>
