<svg width="24" height="24" viewBox="0 0 24 24" fill="none" xmlns="http://www.w3.org/2000/svg">
<path d="M10.95 12.6999L9.575 11.2999C9.375 11.0999 9.13767 10.9999 8.863 10.9999C8.58833 10.9999 8.35067 11.0999 8.15 11.2999C7.95 11.4999 7.84567 11.7376 7.837 12.0129C7.82833 12.2882 7.92433 12.5256 8.125 12.7249L10.25 14.8499C10.45 15.0499 10.6833 15.1499 10.95 15.1499C11.2167 15.1499 11.45 15.0499 11.65 14.8499L15.9 10.5999C16.1 10.3999 16.2 10.1626 16.2 9.8879C16.2 9.61323 16.1 9.37557 15.9 9.1749C15.7 8.9749 15.4623 8.8749 15.187 8.8749C14.9117 8.8749 14.6743 8.9749 14.475 9.1749L10.95 12.6999ZM12 21.9249H11.75C11.6667 21.9249 11.5917 21.9082 11.525 21.8749C9.34167 21.1916 7.54167 19.8372 6.125 17.8119C4.70833 15.7866 4 13.5492 4 11.0999V6.3749C4 5.95824 4.121 5.58324 4.363 5.2499C4.605 4.91657 4.91733 4.6749 5.3 4.5249L11.3 2.2749C11.5333 2.19157 11.7667 2.1499 12 2.1499C12.2333 2.1499 12.4667 2.19157 12.7 2.2749L18.7 4.5249C19.0833 4.6749 19.396 4.91657 19.638 5.2499C19.88 5.58324 20.0007 5.95824 20 6.3749V11.0999C20 13.5499 19.2917 15.7876 17.875 17.8129C16.4583 19.8382 14.6583 21.1922 12.475 21.8749C12.3917 21.9082 12.2333 21.9249 12 21.9249Z" fill="#F6A1BB"/>
</svg>
